# xmcd
#
# Track frame offsets:
#	150
#	17015
#	33380
#	48680
#	63107
#	78797
#	94469
#	109290
#	126194
#	141707
#	158080
#	173367
#	191540
#	206690
#	220326
#	234011
#	247657
#	263760
#	278844
#	293376
#	309002
#	325755
#
# Disc length: 4544 seconds
#
# Revision: 1
# Processed by: cddbd v1.5.2PL0 Copyright (c) Steve Scherf et al.
# Submitted via: audiograbber 1.83.01
#
DISCID=2711be16
DTITLE=Grupo bryndis - Temerarios - Recuerdos Romanticos
DYEAR=1900
DGENRE=
TTITLE0=Te Vas Con El
TTITLE1=Entre Tu Y Yo
TTITLE2=Lo Nuestro Termino
TTITLE3=Vete Ya
TTITLE4=Secreto De Amor
TTITLE5=El Quinto Trago
TTITLE6=Se Marcho
TTITLE7=Regresa A Mi
TTITLE8=Atras De Mi Ventana
TTITLE9=Mentiras
TTITLE10=Un Triste Corazon
TTITLE11=La Pregunta
TTITLE12=Fueron Tus Palabras
TTITLE13=Si Quiero volver
TTITLE14=Una Lagrima Mas
TTITLE15=La Culpa No Tengo Yo
TTITLE16=Hoy Que Regreso Contigo
TTITLE17=Tu Infame Engano
TTITLE18=Dimelo
TTITLE19=Tu Me Vas A Llorar
TTITLE20=Faltas Tu
TTITLE21=Acepta Mi Error
EXTD=
EXTT0=
EXTT1=
EXTT2=
EXTT3=
EXTT4=
EXTT5=
EXTT6=
EXTT7=
EXTT8=
EXTT9=
EXTT10=
EXTT11=
EXTT12=
EXTT13=
EXTT14=
EXTT15=
EXTT16=
EXTT17=
EXTT18=
EXTT19=
EXTT20=
EXTT21=
PLAYORDER=
